#!OML:ASF H:\Punching\Project 1\Capture day 1\Session 1\female.ASF
:FULLY-SPECIFIED
:DEGREES
2009
root 0.798954 15.2336 3.0889 -2.58392 -13.1343 8.84441
lowerback 2.80789 -2.30343 3.47472
upperback -3.59009 -3.24166 -6.15769
thorax -5.91065 -1.93808 -8.22323
lowerneck -4.23155 10.7902 12.1122
upperneck 39.3559 19.0358 -12.5369
head 18.0159 8.28183 -4.63375
rclavicle 2.40529e-014 -1.51076e-014
rhumerus 19.2034 25.7701 -59.6007
rradius 123.771
rwrist -17.5808
rhand -30.8444 9.17631
rfingers 7.12502
rthumb -4.13285 -20.7633
lclavicle 2.40529e-014 -1.51076e-014
lhumerus -3.22493 -10.5996 58.0378
lradius 141.521
lwrist 5.59002
lhand -27.2901 5.3254
lfingers 7.12502
lthumb -0.700246 35.304
rfemur -21.3016 1.79829 19.8349
rtibia 47.3686
rfoot -22.5249 -22.7596
rtoes 16.8026
lfemur -59.7816 6.15892 -26.604
ltibia 117.955
lfoot 14.6366 -3.20028
ltoes -13.5998
2010
root 0.802825 15.2194 3.06904 -1.8982 -12.7833 8.72532
lowerback 2.4856 -2.28453 3.23451
upperback -3.81972 -3.2311 -6.03212
thorax -5.94312 -1.92546 -7.95533
lowerneck -4.45447 10.6905 12.0112
upperneck 39.3908 18.8536 -12.4393
head 18.0196 8.19352 -4.59673
rclavicle -2.11209e-014 2.66371e-014
rhumerus 19.2134 25.8078 -59.4589
rradius 123.95
rwrist -17.6756
rhand -30.8564 9.19737
rfingers 7.12502
rthumb -4.14443 -20.7421
lclavicle -2.11209e-014 2.66371e-014
lhumerus -3.11694 -11.0049 58.5396
lradius 141.532
lwrist 5.7122
lhand -27.1475 5.37868
lfingers 7.12502
lthumb -0.562513 35.3577
rfemur -22.3048 1.61076 19.9187
rtibia 47.8275
rfoot -22.6102 -22.9128
rtoes 16.82
lfemur -57.1392 5.09161 -26.4494
ltibia 116.284
lfoot 13.6148 -2.46881
ltoes -12.863
2011
root 0.807205 15.2045 3.04974 -1.21707 -12.4903 8.60897
lowerback 2.14684 -2.25611 2.9916
upperback -4.0449 -3.20649 -5.90537
thorax -5.95891 -1.90457 -7.68717
lowerneck -4.67462 10.5981 11.9219
upperneck 39.4168 18.6832 -12.351
head 18.0241 8.11106 -4.56337
rclavicle -4.77083e-015 -4.33351e-014
rhumerus 19.2456 25.8428 -59.3144
rradius 124.106
rwrist -17.6793
rhand -30.8903 9.19561
rfingers 7.12502
rthumb -4.17719 -20.7432
lclavicle -4.77083e-015 -4.33351e-014
lhumerus -3.01454 -11.3882 59.0301
lradius 141.506
lwrist 5.72911
lhand -27.0763 5.32855
lfingers 7.12502
lthumb -0.493784 35.3077
rfemur -23.3113 1.43558 20.0069
rtibia 48.2837
rfoot -22.7007 -23.0221
rtoes 16.8033
lfemur -54.5526 4.16109 -26.2801
ltibia 114.557
lfoot 12.7378 -1.67341
ltoes -12.1358
2012
root 0.811985 15.1894 3.03097 -0.536217 -12.2472 8.48019
lowerback 1.79307 -2.21831 2.76037
upperback -4.26758 -3.16727 -5.77658
thorax -5.96203 -1.87604 -7.42604
lowerneck -4.89035 10.5103 11.8456
upperneck 39.4376 18.5167 -12.2631
head 18.0278 8.03242 -4.53157
rclavicle -3.35449e-014 3.37934e-014
rhumerus 19.286 25.8702 -59.1736
rradius 124.24
rwrist -17.609
rhand -30.942 9.18791
rfingers 7.12502
rthumb -4.22709 -20.7499
lclavicle -3.35449e-014 3.37934e-014
lhumerus -2.91326 -11.7644 59.5075
lradius 141.442
lwrist 5.65572
lhand -27.0725 5.18211
lfingers 7.12502
lthumb -0.490066 35.1613
rfemur -24.313 1.27813 20.1124
rtibia 48.7246
rfoot -22.7948 -23.0879
rtoes 16.7526
lfemur -52.0157 3.36646 -26.0761
ltibia 112.79
lfoot 11.9449 -0.834278
ltoes -11.4577
2013
root 0.817015 15.1741 3.01246 0.14795 -12.0466 8.32033
lowerback 1.42482 -2.17519 2.55504
upperback -4.48873 -3.1179 -5.63766
thorax -5.9551 -1.84265 -7.17077
lowerneck -5.09219 10.4282 11.7799
upperneck 39.4507 18.3585 -12.1801
head 18.0281 7.9591 -4.50259
rclavicle 6.98231e-014 2.34566e-014
rhumerus 19.3322 25.8983 -59.0366
rradius 124.363
rwrist -17.5047
rhand -30.9962 9.17027
rfingers 7.12502
rthumb -4.2795 -20.7665
lclavicle 6.98231e-014 2.34566e-014
lhumerus -2.82251 -12.1347 59.9759
lradius 141.322
lwrist 5.48227
lhand -27.1675 4.87855
lfingers 7.12502
lthumb -0.581852 34.8575
rfemur -25.3038 1.14616 20.2536
rtibia 49.1392
rfoot -22.8762 -23.1193
rtoes 16.682
lfemur -49.5297 2.70788 -25.8151
ltibia 110.998
lfoot 11.1982 0.0199912
ltoes -10.8431
2014
root 0.822296 15.159 2.99426 0.830225 -11.8753 8.12956
lowerback 1.04591 -2.13058 2.37593
upperback -4.7051 -3.06368 -5.49035
thorax -5.93798 -1.80716 -6.92275
lowerneck -5.28486 10.352 11.7271
upperneck 39.459 18.2077 -12.0996
head 18.0276 7.89095 -4.47574
rclavicle 3.85642e-014 2.82274e-014
rhumerus 19.3856 25.928 -58.9054
rradius 124.476
rwrist -17.4158
rhand -31.0457 9.14571
rfingers 7.12502
rthumb -4.32729 -20.7901
lclavicle 3.85642e-014 2.82274e-014
lhumerus -2.74048 -12.4915 60.4321
lradius 141.2
lwrist 5.31128
lhand -27.2627 4.59371
lfingers 7.12502
lthumb -0.673804 34.5724
rfemur -26.2729 1.02908 20.4275
rtibia 49.5222
rfoot -22.9418 -23.1143
rtoes 16.5997
lfemur -47.0797 2.17027 -25.5004
ltibia 109.182
lfoot 10.4574 0.87157
ltoes -10.3188
2015
root 0.827887 15.1442 2.97607 1.50819 -11.7249 7.90736
lowerback 0.668491 -2.0836 2.22657
upperback -4.92288 -3.00396 -5.3359
thorax -5.92452 -1.76997 -6.6849
lowerneck -5.45799 10.2781 11.686
upperneck 39.4681 18.0596 -12.02
head 18.0254 7.82663 -4.4519
rclavicle 2.5345e-015 1.78906e-014
rhumerus 19.4271 25.9576 -58.7858
rradius 124.593
rwrist -17.3859
rhand -31.0899 9.13419
rfingers 7.12502
rthumb -4.36995 -20.8007
lclavicle 2.5345e-015 1.78906e-014
lhumerus -2.67496 -12.85 60.8838
lradius 141.082
lwrist 5.15446
lhand -27.335 4.35837
lfingers 7.12502
lthumb -0.743656 34.3368
rfemur -27.2197 0.919675 20.6349
rtibia 49.8738
rfoot -22.9872 -23.0766
rtoes 16.508
lfemur -44.6638 1.74441 -25.1312
ltibia 107.338
lfoot 9.73152 1.72293
ltoes -9.83735
2016
root 0.833874 15.1297 2.95771 2.17676 -11.5827 7.66505
lowerback 0.292723 -2.04047 2.09636
upperback -5.13693 -2.94771 -5.17764
thorax -5.91017 -1.735 -6.45401
lowerneck -5.62087 10.2082 11.6538
upperneck 39.4813 17.9166 -11.9386
head 18.0256 7.7662 -4.42855
rclavicle -7.18607e-014 -4.21423e-014
rhumerus 19.4638 25.9829 -58.6773
rradius 124.72
rwrist -17.4403
rhand -31.1117 9.12952
rfingers 7.12502
rthumb -4.39105 -20.805
lclavicle -7.18607e-014 -4.21423e-014
lhumerus -2.62067 -13.1984 61.3229
lradius 140.974
lwrist 5.02226
lhand -27.4063 4.1183
lfingers 7.12502
lthumb -0.81254 34.0965
rfemur -28.1441 0.801931 20.8639
rtibia 50.2009
rfoot -23.0171 -23.0072
rtoes 16.4016
lfemur -42.2784 1.40998 -24.7232
ltibia 105.457
lfoot 9.03433 2.58479
ltoes -9.38568
2017
root 0.840378 15.1156 2.93903 2.8318 -11.4392 7.42474
lowerback -0.0793522 -2.00301 1.96805
upperback -5.34616 -2.89856 -5.02419
thorax -5.89491 -1.70349 -6.22912
lowerneck -5.77677 10.1418 11.6388
upperneck 39.4996 17.7778 -11.8605
head 18.0314 7.70996 -4.40952
rclavicle -2.95692e-014 -6.08281e-014
rhumerus 19.4946 25.9968 -58.5859
rradius 124.856
rwrist -17.5738
rhand -31.1158 9.13609
rfingers 7.12502
rthumb -4.39495 -20.7983
lclavicle -2.95692e-014 -6.08281e-014
lhumerus -2.57703 -13.533 61.75
lradius 140.881
lwrist 4.91551
lhand -27.4558 3.86303
lfingers 7.12502
lthumb -0.860274 33.841
rfemur -29.0518 0.658687 21.0921
rtibia 50.5139
rfoot -23.035 -22.9077
rtoes 16.2891
lfemur -39.924 1.14717 -24.3032
ltibia 103.531
lfoot 8.39529 3.47178
ltoes -8.93644
2018
root 0.847416 15.1017 2.91957 3.46704 -11.2879 7.20229
lowerback -0.433496 -1.97524 1.82496
upperback -5.55203 -2.86285 -4.88108
thorax -5.88857 -1.67817 -6.00586
lowerneck -5.93187 10.0797 11.6371
upperneck 39.5272 17.6413 -11.7755
head 18.0442 7.65712 -4.3896
rclavicle 3.11595e-014 -1.03368e-014
rhumerus 19.5137 25.999 -58.52
rradius 125
rwrist -17.7649
rhand -31.0954 9.14701
rfingers 7.12502
rthumb -4.37526 -20.7878
lclavicle 3.11595e-014 -1.03368e-014
lhumerus -2.53677 -13.8479 62.1549
lradius 140.811
lwrist 4.82988
lhand -27.4654 3.63848
lfingers 7.12502
lthumb -0.869609 33.6164
rfemur -29.9473 0.484622 21.305
rtibia 50.8236
rfoot -23.0471 -22.785
rtoes 16.1582
lfemur -37.6014 0.945632 -23.8873
ltibia 101.552
lfoot 7.82196 4.38026
ltoes -8.45774
2019
root 0.854914 15.088 2.89906 4.07794 -11.1215 7.01432
lowerback -0.768961 -1.96239 1.65016
upperback -5.75019 -2.84792 -4.75178
thorax -5.88688 -1.66175 -5.77797
lowerneck -6.08615 10.0231 11.6508
upperneck 39.5527 17.5085 -11.6889
head 18.0584 7.60823 -4.37073
rclavicle 4.02539e-014 4.37326e-014
rhumerus 19.5328 25.9889 -58.4796
rradius 125.144
rwrist -17.9712
rhand -31.059 9.16503
rfingers 7.12502
rthumb -4.34013 -20.7705
lclavicle 4.02539e-014 4.37326e-014
lhumerus -2.49412 -14.1333 62.5314
lradius 140.757
lwrist 4.75312
lhand -27.4445 3.39251
lfingers 7.12502
lthumb -0.849391 33.3706
rfemur -30.8329 0.27918 21.4855
rtibia 51.1388
rfoot -23.0578 -22.6486
rtoes 16.03
lfemur -35.3126 0.798518 -23.4938
ltibia 99.5154
lfoot 7.29887 5.31473
ltoes -7.92465
2020
root 0.862771 15.0746 2.8772 4.65905 -10.9346 6.86633
lowerback -1.07095 -1.96789 1.43562
upperback -5.94046 -2.85858 -4.63841
thorax -5.89809 -1.65633 -5.54267
lowerneck -6.24599 9.97307 11.6803
upperneck 39.5765 17.3779 -11.5948
head 18.0749 7.56304 -4.35008
rclavicle 1.37161e-014 -3.97569e-015
rhumerus 19.5498 25.9681 -58.4679
rradius 125.28
rwrist -18.1446
rhand -31.0245 9.20206
rfingers 7.12502
rthumb -4.30679 -20.7341
lclavicle 1.37161e-014 -3.97569e-015
lhumerus -2.43907 -14.3917 62.8675
lradius 140.719
lwrist 4.6841
lhand -27.4155 3.16354
lfingers 7.12502
lthumb -0.821385 33.1417
rfemur -31.7053 0.0526969 21.6278
rtibia 51.4631
rfoot -23.0704 -22.5134
rtoes 15.9184
lfemur -33.0569 0.70375 -23.1238
ltibia 97.421
lfoot 6.8024 6.24714
ltoes -7.41536
